<svg id="visual" viewBox="0 0 900 600" width="900" height="600" xmlns="http://www.w3.org/2000/svg" xmlns:xlink="http://www.w3.org/1999/xlink" version="1.1"><path d="M0 493L21.5 495.5C43 498 86 503 128.8 505C171.7 507 214.3 506 257.2 491.8C300 477.7 343 450.3 385.8 446.7C428.7 443 471.3 463 514.2 476.8C557 490.7 600 498.3 642.8 487.7C685.7 477 728.3 448 771.2 445C814 442 857 465 878.5 476.5L900 488L900 601L878.5 601C857 601 814 601 771.2 601C728.3 601 685.7 601 642.8 601C600 601 557 601 514.2 601C471.3 601 428.7 601 385.8 601C343 601 300 601 257.2 601C214.3 601 171.7 601 128.8 601C86 601 43 601 21.5 601L0 601Z" fill="#34D399" stroke-linecap="round" stroke-linejoin="miter"></path></svg>