<svg id="visual" viewBox="0 0 900 600" width="900" height="600" xmlns="http://www.w3.org/2000/svg" xmlns:xlink="http://www.w3.org/1999/xlink" version="1.1"><rect x="0" y="0" width="900" height="600" fill="#060d11"></rect><path d="M0 532L21.5 536.3C43 540.7 86 549.3 128.8 554.5C171.7 559.7 214.3 561.3 257.2 562.3C300 563.3 343 563.7 385.8 558.3C428.7 553 471.3 542 514.2 535C557 528 600 525 642.8 525.7C685.7 526.3 728.3 530.7 771.2 538C814 545.3 857 555.7 878.5 560.8L900 566L900 601L878.5 601C857 601 814 601 771.2 601C728.3 601 685.7 601 642.8 601C600 601 557 601 514.2 601C471.3 601 428.7 601 385.8 601C343 601 300 601 257.2 601C214.3 601 171.7 601 128.8 601C86 601 43 601 21.5 601L0 601Z" fill="#34D399" stroke-linecap="round" stroke-linejoin="miter"></path></svg>